<svg width="32" height="32" viewBox="0 0 32 32" fill="none" xmlns="http://www.w3.org/2000/svg">
<path opacity="0.3" d="M20.4357 15.9272C23.6135 13.5661 27.3893 12.1416 31.3354 11.8149C31.3164 11.7422 31.2942 11.6694 31.2721 11.5966C28.5528 11.1783 26.0381 9.90298 24.0946 7.95644C22.1511 6.00989 20.8803 3.49387 20.4674 0.775007L20.2806 0.721231C19.9391 4.66661 18.4985 8.43742 16.1221 11.6061C17.3475 13.2438 18.8 14.6987 20.4357 15.9272Z" fill="#42EA95"/>
<path opacity="0.3" d="M11.6938 16.0063C8.51594 18.3694 4.73858 19.7941 0.791016 20.1186C0.813169 20.1913 0.832158 20.2641 0.854312 20.3368C3.57319 20.755 6.08747 22.0299 8.03092 23.9758C9.97437 25.9217 11.2455 28.437 11.659 31.1553L11.8584 31.2122C12.1987 27.2686 13.6371 23.499 16.0107 20.3305C14.7841 18.6918 13.3306 17.2358 11.6938 16.0063Z" fill="#42EA95"/>
<path d="M16.065 0.148746C14.676 0.148148 13.2928 0.328932 11.9507 0.686507L11.7671 0.740282C11.3601 3.48542 10.0782 6.02618 8.11185 7.98535C6.14546 9.94452 3.5994 11.2176 0.851647 11.6157L0.788351 11.8308C0.0562268 14.5417 0.0562268 17.3982 0.788351 20.1091C4.73592 19.7847 8.51328 18.36 11.6912 15.9969C13.3741 14.7531 14.8667 13.2708 16.1219 11.5967C18.4967 8.43068 19.9372 4.66338 20.2805 0.721303C18.9076 0.341014 17.4896 0.148409 16.065 0.148746Z" fill="url(#paint0_linear_202_2)"/>
<path d="M31.3347 11.8212C26.3236 12.2436 21.6224 14.4201 18.0594 17.9675C14.4965 21.5148 12.3005 26.2052 11.8584 31.2122C13.2283 31.5909 14.6431 31.7825 16.0644 31.7816C17.4535 31.7827 18.8367 31.602 20.1787 31.2439L20.3718 31.1869C20.7794 28.4439 22.0603 25.9052 24.0247 23.9469C25.9891 21.9886 28.5324 20.7149 31.2778 20.3147C31.2967 20.2419 31.3189 20.1723 31.3379 20.0996C32.0743 17.3892 32.0743 14.5316 31.3379 11.8212H31.3347Z" fill="url(#paint1_linear_202_2)"/>
<defs>
<linearGradient id="paint0_linear_202_2" x1="12.7894" y1="12.6849" x2="5.31768" y2="5.15897" gradientUnits="userSpaceOnUse">
<stop stop-color="#42EA95"/>
<stop offset="0.57" stop-color="#2BDDBA"/>
<stop offset="0.72" stop-color="#25DAC4"/>
<stop offset="1" stop-color="#03C7FD"/>
</linearGradient>
<linearGradient id="paint1_linear_202_2" x1="18.0615" y1="18.5243" x2="26.5524" y2="25.7153" gradientUnits="userSpaceOnUse">
<stop stop-color="#42EA95"/>
<stop offset="0.68" stop-color="#25DAC4"/>
<stop offset="1" stop-color="#03C7FD"/>
</linearGradient>
</defs>
</svg>
